<?xml version="1.0" encoding="UTF-8" standalone="no"?>
<svg
   xmlns:dc="http://purl.org/dc/elements/1.1/"
   xmlns:cc="http://creativecommons.org/ns#"
   xmlns:rdf="http://www.w3.org/1999/02/22-rdf-syntax-ns#"
   xmlns:svg="http://www.w3.org/2000/svg"
   xmlns="http://www.w3.org/2000/svg"
   xmlns:sodipodi="http://sodipodi.sourceforge.net/DTD/sodipodi-0.dtd"
   xmlns:inkscape="http://www.inkscape.org/namespaces/inkscape"
   height="32px"
   version="1.1"
   viewBox="0 0 32 32"
   width="32px"
   id="svg2"
   inkscape:version="0.91 r13725"
   sodipodi:docname="icon_upload.svg">
  <metadata
     id="metadata15">
    <rdf:RDF>
      <cc:Work
         rdf:about="">
        <dc:format>image/svg+xml</dc:format>
        <dc:type
           rdf:resource="http://purl.org/dc/dcmitype/StillImage" />
        <dc:title></dc:title>
      </cc:Work>
    </rdf:RDF>
  </metadata>
  <sodipodi:namedview
     pagecolor="#ffffff"
     bordercolor="#666666"
     borderopacity="1"
     objecttolerance="10"
     gridtolerance="10"
     guidetolerance="10"
     inkscape:pageopacity="0"
     inkscape:pageshadow="2"
     inkscape:window-width="1613"
     inkscape:window-height="1023"
     id="namedview13"
     showgrid="false"
     inkscape:zoom="7.375"
     inkscape:cx="-15.79661"
     inkscape:cy="16"
     inkscape:window-x="203"
     inkscape:window-y="161"
     inkscape:window-maximized="0"
     inkscape:current-layer="svg2" />
  <desc
     id="desc6" />
  <defs
     id="defs8" />
  <g
     id="Page-1"
     transform="matrix(1,0,0,1.0909091,-0.5,-1.4545456)"
     style="fill:none;fill-rule:evenodd;stroke:none;stroke-width:1">
    <g
       id="icon-130-cloud-upload"
       style="fill:#157efb">
      <path
         d="M 16,16 12.75,19.25 12,18.5 16.5,14 21,18.5 20.25,19.25 17,16 l 0,11 -1,0 0,-11 0,0 z m -1,5 -6.9971835,0 C 5.7979383,21 4,19.209139 4,17 4,15.10461 5.3246099,13.511736 7.1010092,13.102154 l 0,0 C 7.0346763,12.744882 7,12.37649 7,12 7,8.6862913 9.6862913,6 13,6 15.615442,6 17.840026,7.6734568 18.661424,10.008041 19.435776,9.3778124 20.423767,9 21.5,9 c 2.358343,0 4.292964,1.814166 4.484438,4.123072 l 0,0 C 27.714492,13.563097 29,15.132016 29,17 c 0,2.204644 -1.792122,4 -4.002817,4 L 18,21 l 0,1 7.00056,0 C 27.761675,22 30,19.755805 30,17 30,14.903581 28.713291,13.108508 26.882863,12.36551 l 0,0 C 26.360022,9.8722494 24.148655,8 21.5,8 20.637102,8 19.820616,8.1987158 19.093808,8.5528817 17.891182,6.4314488 15.612757,5 13,5 9.1340066,5 6,8.1340066 6,12 c 0,0.138151 0.004,0.275367 0.011897,0.411539 l 0,0 C 4.2396588,13.181608 3,14.949131 3,17 c 0,2.761424 2.2324942,5 4.9994399,5 L 15,22 l 0,-1 0,0 0,0 z"
         id="cloud-upload"
         inkscape:connector-curvature="0" />
    </g>
  </g>
</svg>
