<?xml version="1.0" encoding="iso-8859-1"?>
<!-- Generator: Adobe Illustrator 16.0.0, SVG Export Plug-In . SVG Version: 6.00 Build 0)  -->
<!DOCTYPE svg PUBLIC "-//W3C//DTD SVG 1.1//EN" "http://www.w3.org/Graphics/SVG/1.1/DTD/svg11.dtd">
<svg version="1.1" id="Capa_1" xmlns="http://www.w3.org/2000/svg" xmlns:xlink="http://www.w3.org/1999/xlink" x="0px" y="0px"
	 width="439.875px" height="439.875px" viewBox="0 0 439.875 439.875" style="enable-background:new 0 0 439.875 439.875;"
	 xml:space="preserve">
<g>
	<g>
		<path d="M382.5,95.625H57.375C24.862,95.625,0,120.487,0,153v133.875c0,32.513,24.862,57.375,57.375,57.375H382.5
			c32.513,0,57.375-24.862,57.375-57.375V153C439.875,120.487,415.013,95.625,382.5,95.625z M95.625,210.375h19.125
			c21.038,0,38.25,17.213,38.25,38.25s-17.212,38.25-38.25,38.25H95.625c-21.038,0-38.25-17.213-38.25-38.25l0,0H76.5l0,0
			c0,9.562,7.65,19.125,19.125,19.125h19.125c11.475,0,19.125-7.65,19.125-19.125S124.312,229.5,114.75,229.5H95.625
			c-21.038,0-38.25-17.213-38.25-38.25c0-21.038,17.212-38.25,38.25-38.25h19.125c21.038,0,38.25,17.212,38.25,38.25h-19.125
			c0-9.562-7.65-19.125-19.125-19.125H95.625c-11.475,0-19.125,7.65-19.125,19.125S86.062,210.375,95.625,210.375z M260.1,302.175
			l-17.212-17.212c-3.825,1.912-9.562,1.912-13.388,1.912h-19.125c-21.038,0-38.25-17.213-38.25-38.25V191.25
			c0-21.038,17.212-38.25,38.25-38.25H229.5c21.037,0,38.25,17.212,38.25,38.25v57.375c0,9.562-3.825,19.125-9.562,24.862l15.3,15.3
			L260.1,302.175z M382.5,286.875h-95.625V153H306v114.75h76.5V286.875z"/>
		<path d="M229.5,172.125h-19.125c-11.475,0-19.125,7.65-19.125,19.125v57.375c0,11.475,7.65,19.125,19.125,19.125h15.3
			l-21.037-21.037l13.388-13.388L244.8,260.1c1.913-3.824,3.825-7.649,3.825-11.475V191.25
			C248.625,179.775,240.975,172.125,229.5,172.125z"/>
	</g>
</g>
<g>
</g>
<g>
</g>
<g>
</g>
<g>
</g>
<g>
</g>
<g>
</g>
<g>
</g>
<g>
</g>
<g>
</g>
<g>
</g>
<g>
</g>
<g>
</g>
<g>
</g>
<g>
</g>
<g>
</g>
</svg>
