<?xml version="1.0" encoding="UTF-8" standalone="no"?>
<svg
   xmlns:dc="http://purl.org/dc/elements/1.1/"
   xmlns:cc="http://creativecommons.org/ns#"
   xmlns:rdf="http://www.w3.org/1999/02/22-rdf-syntax-ns#"
   xmlns:svg="http://www.w3.org/2000/svg"
   xmlns="http://www.w3.org/2000/svg"
   xmlns:sodipodi="http://sodipodi.sourceforge.net/DTD/sodipodi-0.dtd"
   xmlns:inkscape="http://www.inkscape.org/namespaces/inkscape"
   id="Layer_1"
   version="1.1"
   viewBox="0 0 32 32"
   xml:space="preserve"
   inkscape:version="0.91 r13725"
   sodipodi:docname="icon_rename.svg"
   width="32"
   height="32"
   inkscape:export-filename="/mnt/hgfs/RFM/images/icon_rename.png"
   inkscape:export-xdpi="90"
   inkscape:export-ydpi="90"><metadata
     id="metadata17"><rdf:RDF><cc:Work
         rdf:about=""><dc:format>image/svg+xml</dc:format><dc:type
           rdf:resource="http://purl.org/dc/dcmitype/StillImage" /><dc:title /></cc:Work></rdf:RDF></metadata><defs
     id="defs15" /><sodipodi:namedview
     pagecolor="#ffffff"
     bordercolor="#666666"
     borderopacity="1"
     objecttolerance="10"
     gridtolerance="10"
     guidetolerance="10"
     inkscape:pageopacity="0"
     inkscape:pageshadow="2"
     inkscape:window-width="2560"
     inkscape:window-height="1416"
     id="namedview13"
     showgrid="false"
     fit-margin-top="0"
     fit-margin-left="0"
     fit-margin-right="0"
     fit-margin-bottom="0"
     inkscape:zoom="5.2149125"
     inkscape:cx="-48.103515"
     inkscape:cy="32.637504"
     inkscape:window-x="0"
     inkscape:window-y="24"
     inkscape:window-maximized="1"
     inkscape:current-layer="Layer_1" /><style
     type="text/css"
     id="style3">
	.st0{fill:#134563;}
</style><g
     id="g5"
     transform="matrix(0.55555556,0,0,0.55555556,-2.0000001,-2.0000001)"><g
       id="Icon-Pencil"
       transform="translate(179,382)"><path
         class="st0"
         d="m -168.2,-328 3.7,-14.9 22.7,-22.7 11.2,11.2 -22.7,22.7 -14.9,3.7 0,0 z m 6.3,-13.5 -2.4,9.6 9.6,-2.4 20.2,-20.2 -7.2,-7.2 -20.2,20.2 0,0 z"
         id="Fill-168"
         inkscape:connector-curvature="0"
         style="fill:#134563" /><path
         class="st0"
         d="m -155.7,-332.6 c -1,-3.9 -4,-6.9 -7.9,-7.9 l 0.7,-2.8 c 4.9,1.2 8.7,5 9.9,9.9 l -2.7,0.8"
         id="Fill-169"
         inkscape:connector-curvature="0"
         style="fill:#134563" /><polyline
         class="st0"
         id="Fill-170"
         points="-156,-338.1 -158,-340.2 -138.1,-360.1 -136.1,-358.1 -156,-338.1    "
         style="fill:#134563" /><path
         class="st0"
         d="m -166.2,-330 4.4,-1.1 c -0.4,-1.6 -1.7,-2.9 -3.3,-3.3 l -1.1,4.4"
         id="Fill-171"
         inkscape:connector-curvature="0"
         style="fill:#134563" /><path
         class="st0"
         d="m -129.5,-355.5 -11.2,-11.2 4.5,-4.5 0.7,0.1 c 5.4,0.7 9.7,5 10.4,10.4 l 0.1,0.7 -4.5,4.5 0,0 z m -7.1,-11.2 7.2,7.2 1.4,-1.4 c -0.8,-3.6 -3.6,-6.4 -7.2,-7.2 l -1.4,1.4 0,0 z"
         id="Fill-172"
         inkscape:connector-curvature="0"
         style="fill:#134563" /></g></g><path
     style="fill:#157efb;fill-opacity:0.99215686"
     d="m 4.0640329,27.867789 c 0.00107,-0.02797 0.4562679,-1.86361 1.0115493,-4.079209 l 1.0096024,-4.028362 6.2934214,-6.293694 6.293421,-6.293694 3.084745,3.084746 3.084746,3.084746 -6.292276,6.292548 -6.292275,6.292549 -4.0465931,0.997174 c -2.225626,0.548446 -4.0694742,0.99647 -4.0974403,0.995609 -0.027966,-8.61e-4 -0.049971,-0.02445 -0.048901,-0.05241 z m 6.6282731,-3.166943 c 0.06867,-0.06867 -0.428813,-0.991015 -0.7964545,-1.476659 -0.375088,-0.49548 -0.8811636,-0.96842 -1.4494691,-1.354566 -0.3859938,-0.26227 -1.1193723,-0.632722 -1.1582363,-0.585061 -0.010722,0.01315 -0.2097944,0.790411 -0.4423838,1.727248 l -0.4228899,1.703342 0.4295691,0.437041 0.4295692,0.437042 1.6826244,-0.42167 c 0.9254435,-0.231919 1.7028959,-0.441941 1.7276709,-0.466717 z m 11.318596,-12.154639 -0.728703,-0.728703 -5.118531,5.118195 c -2.815192,2.815007 -5.118531,5.142825 -5.118531,5.17293 0,0.0301 0.117894,0.228486 0.261985,0.440846 0.144092,0.212361 0.375707,0.612099 0.5147,0.888306 l 0.252715,0.502195 5.332534,-5.332533 5.332533,-5.332534 -0.728702,-0.728702 z m -6.948153,3.320921 5.135922,-5.136256 -0.746756,-0.7444408 -0.746757,-0.7444408 -5.318184,5.3178606 -5.3181848,5.317861 0.5559705,0.296624 c 0.3057838,0.163144 0.7085129,0.414649 0.8949536,0.5589 0.1864407,0.144252 0.3543125,0.264047 0.3730486,0.266211 0.018736,0.0022 2.3452301,-2.307379 5.1699871,-5.132319 z"
     id="path7283"
     inkscape:connector-curvature="0" /><path
     style="fill:#157efb;fill-opacity:0.99215686"
     d="M 22.434986,9.5796725 19.351208,6.4953352 20.571054,5.2707668 21.7909,4.0461983 l 0.372021,0.044803 c 1.116786,0.1344952 2.369386,0.6733842 3.303293,1.4211307 1.227076,0.9824756 2.130508,2.5050458 2.393392,4.0336236 0.04168,0.2423729 0.08526,0.4905276 0.09683,0.5514556 0.01311,0.06899 -0.442653,0.573966 -1.208314,1.338788 L 25.518765,12.66401 22.434986,9.5796725 Z M 25.984471,10.098051 26.377187,9.7011938 26.198771,9.1658475 C 25.875342,8.1953811 25.153169,7.1984622 24.342509,6.6033833 23.935731,6.3047803 23.17884,5.9276813 22.70774,5.788907 L 22.336445,5.6795325 21.928633,6.0873438 21.520822,6.495155 23.519837,8.4950315 c 1.099458,1.0999321 2.015418,1.9998765 2.035466,1.9998765 0.02005,0 0.213174,-0.178586 0.429168,-0.396857 z"
     id="path7285"
     inkscape:connector-curvature="0" /></svg>