<?xml version="1.0" encoding="iso-8859-1"?>
<!-- Generator: Adobe Illustrator 16.0.0, SVG Export Plug-In . SVG Version: 6.00 Build 0)  -->
<!DOCTYPE svg PUBLIC "-//W3C//DTD SVG 1.1//EN" "http://www.w3.org/Graphics/SVG/1.1/DTD/svg11.dtd">
<svg version="1.1" id="Capa_1" xmlns="http://www.w3.org/2000/svg" xmlns:xlink="http://www.w3.org/1999/xlink" x="0px" y="0px"
	 width="592.875px" height="592.875px" viewBox="0 0 592.875 592.875" style="enable-background:new 0 0 592.875 592.875;"
	 xml:space="preserve">
<g>
	<g>
		<path d="M57.375,420.75V286.875c0-32.513,24.862-57.375,57.375-57.375h248.625v-38.25H267.75c-21.038,0-38.25-17.212-38.25-38.25
			V38.25H38.25C17.212,38.25,0,55.462,0,76.5v439.875c0,21.037,17.212,38.25,38.25,38.25h286.875c21.037,0,38.25-17.213,38.25-38.25
			v-38.25H114.75C82.237,478.125,57.375,453.263,57.375,420.75z"/>
		<path d="M267.75,172.125h95.625L248.625,38.25V153C248.625,164.475,258.188,172.125,267.75,172.125z"/>
		<path d="M554.625,248.625H114.75c-21.038,0-38.25,17.212-38.25,38.25V420.75c0,21.037,17.212,38.25,38.25,38.25h439.875
			c21.037,0,38.25-17.213,38.25-38.25V286.875C592.875,265.837,575.662,248.625,554.625,248.625z M210.375,420.75H191.25v-57.375
			h-57.375v57.375H114.75V286.875h19.125v57.375h57.375v-57.375h19.125V420.75z M325.125,306h-38.25v114.75H267.75V306H229.5
			v-19.125h95.625V306z M439.875,420.75H420.75v-95.625l-19.125,38.25h-9.562H382.5l-19.125-38.25v95.625H344.25V286.875h9.562
			h9.562l28.688,57.375l28.688-57.375h9.562h9.562V420.75z M554.625,420.75H459V286.875h19.125v114.75h76.5V420.75z"/>
	</g>
</g>
<g>
</g>
<g>
</g>
<g>
</g>
<g>
</g>
<g>
</g>
<g>
</g>
<g>
</g>
<g>
</g>
<g>
</g>
<g>
</g>
<g>
</g>
<g>
</g>
<g>
</g>
<g>
</g>
<g>
</g>
</svg>
