<?xml version="1.0" encoding="UTF-8" standalone="no"?>
<svg
   xmlns:dc="http://purl.org/dc/elements/1.1/"
   xmlns:cc="http://creativecommons.org/ns#"
   xmlns:rdf="http://www.w3.org/1999/02/22-rdf-syntax-ns#"
   xmlns:svg="http://www.w3.org/2000/svg"
   xmlns="http://www.w3.org/2000/svg"
   xmlns:sodipodi="http://sodipodi.sourceforge.net/DTD/sodipodi-0.dtd"
   xmlns:inkscape="http://www.inkscape.org/namespaces/inkscape"
   id="Layer_1"
   version="1.1"
   viewBox="0 0 32 32"
   xml:space="preserve"
   inkscape:version="0.91 r13725"
   sodipodi:docname="icon_delete.svg"
   width="32"
   height="32"
   inkscape:export-filename="/mnt/hgfs/RFM/images/icon_delete.svg.png"
   inkscape:export-xdpi="90"
   inkscape:export-ydpi="90"><metadata
     id="metadata18"><rdf:RDF><cc:Work
         rdf:about=""><dc:format>image/svg+xml</dc:format><dc:type
           rdf:resource="http://purl.org/dc/dcmitype/StillImage" /><dc:title /></cc:Work></rdf:RDF></metadata><defs
     id="defs16" /><sodipodi:namedview
     pagecolor="#ffffff"
     bordercolor="#666666"
     borderopacity="1"
     objecttolerance="10"
     gridtolerance="10"
     guidetolerance="10"
     inkscape:pageopacity="0"
     inkscape:pageshadow="2"
     inkscape:window-width="873"
     inkscape:window-height="1388"
     id="namedview14"
     showgrid="false"
     inkscape:zoom="3.6875"
     inkscape:cx="30.24434"
     inkscape:cy="20.040492"
     inkscape:window-x="0"
     inkscape:window-y="24"
     inkscape:window-maximized="0"
     inkscape:current-layer="Layer_1"
     fit-margin-top="0"
     fit-margin-left="0"
     fit-margin-right="0"
     fit-margin-bottom="0"
     inkscape:snap-grids="true" /><style
     type="text/css"
     id="style3">
	.st0{fill:#134563;}
</style><g
     id="g5"
     transform="matrix(0.61538462,0,0,0.50104384,-3.6923078,-0.00835069)"><g
       id="Icon-Trash"
       transform="translate(232,228)"><polygon
         class="st0"
         id="Fill-6"
         points="-207.5,-181.1 -207.5,-205.1 -204.5,-205.1 -204.5,-181.1 "
         style="fill:#134563" /><polygon
         class="st0"
         id="Fill-7"
         points="-201.5,-181.1 -201.5,-205.1 -198.5,-205.1 -198.5,-181.1 "
         style="fill:#134563" /><polygon
         class="st0"
         id="Fill-8"
         points="-195.5,-181.1 -195.5,-205.1 -192.5,-205.1 -192.5,-181.1 "
         style="fill:#134563" /><polygon
         class="st0"
         id="Fill-9"
         points="-219.5,-211.1 -219.5,-214.1 -180.5,-214.1 -180.5,-211.1 "
         style="fill:#134563" /><path
         class="st0"
         d="m -192.6,-212.6 -2.8,0 0,-3 c 0,-0.9 -0.7,-1.6 -1.6,-1.6 l -6,0 c -0.9,0 -1.6,0.7 -1.6,1.6 l 0,3 -2.8,0 0,-3 c 0,-2.4 2,-4.4 4.4,-4.4 l 6,0 c 2.4,0 4.4,2 4.4,4.4 l 0,3"
         id="Fill-10"
         inkscape:connector-curvature="0"
         style="fill:#134563" /><path
         class="st0"
         d="m -191,-172.1 -18,0 c -2.4,0 -4.5,-2 -4.7,-4.4 l -2.8,-36 3,-0.2 2.8,36 c 0.1,0.9 0.9,1.6 1.7,1.6 l 18,0 c 0.9,0 1.7,-0.8 1.7,-1.6 l 2.8,-36 3,0.2 -2.8,36 c -0.2,2.5 -2.3,4.4 -4.7,4.4"
         id="Fill-11"
         inkscape:connector-curvature="0"
         style="fill:#134563" /></g></g><style
     id="style3-6"
     type="text/css">
	.st0{fill:#134563;}
</style><path
     style="fill:#147efb;fill-opacity:1"
     d=""
     id="path7299"
     inkscape:connector-curvature="0" /><path
     style="fill:#147efb;fill-opacity:1"
     d="M 9.5206571,27.820697 C 8.7144702,27.562927 8.0854672,27.0496 7.7896988,26.408069 7.6360668,26.074836 7.5688464,25.463393 6.7834939,17.255527 6.3206278,12.418027 5.9417467,8.4524459 5.9415357,8.4431238 5.9413248,8.4338018 5.5140335,8.4261747 4.9919996,8.4261747 l -0.9491525,0 0,-0.7118644 0,-0.7118644 3.7224605,0 3.7224604,0 0.02442,-0.661017 c 0.01777,-0.4810999 0.06064,-0.7348291 0.157485,-0.9322034 0.301337,-0.6141131 1.104335,-1.164976 1.925096,-1.3206302 0.471745,-0.089464 4.352864,-0.090176 4.823697,-8.849e-4 0.531096,0.1007204 1.032882,0.3548737 1.425245,0.7218839 0.51275,0.479617 0.626175,0.7426227 0.660628,1.5318346 l 0.02886,0.661017 3.720928,0 3.720929,0 0,0.7118644 0,0.7118644 -0.946081,0 -0.94608,0 -0.03706,0.220339 c -0.02038,0.1211864 -0.402727,4.0644063 -0.849654,8.7627123 -0.446928,4.698305 -0.843467,8.648843 -0.881199,8.778974 -0.196527,0.677791 -0.961009,1.364493 -1.811479,1.627177 -0.428213,0.132261 -0.61773,0.136116 -6.51864,0.132575 -5.688791,-0.0034 -6.1023366,-0.01155 -6.4642009,-0.127255 z m 12.5586719,-1.44537 c 0.195966,-0.09882 0.344627,-0.23611 0.422115,-0.38983 0.09623,-0.190891 0.278581,-1.91423 0.932611,-8.81356 0.447148,-4.716949 0.812813,-8.6144064 0.812589,-8.6610166 -3.24e-4,-0.067329 -1.69328,-0.084746 -8.237695,-0.084746 l -8.2372883,0 0,0.1940691 c 0,0.106738 0.3652998,4.0152582 0.8117775,8.6856012 0.6726587,7.03629 0.8326814,8.527984 0.9337545,8.704235 0.067087,0.116988 0.2574043,0.281349 0.4229268,0.365247 l 0.3009495,0.152543 5.76788,0 5.767879,0 0.302501,-0.152543 z M 18.852036,6.4761407 c -0.005,-0.562174 -0.119744,-0.7836168 -0.508923,-0.9820641 -0.206709,-0.105403 -0.465365,-0.1183854 -2.334164,-0.1171551 -1.898856,0.00125 -2.128364,0.013496 -2.378025,0.1268875 -0.362243,0.1645244 -0.503331,0.4594062 -0.503331,1.0519916 l 0,0.4481168 2.864407,-0.017685 2.864406,-0.017685 -0.0044,-0.4924068 2e-6,0 z"
     id="path7301"
     inkscape:connector-curvature="0" /><path
     style="fill:#147efb;fill-opacity:1"
     d="m 18.822508,17.477022 0,-6 0.881356,0 0.881356,0 0,6 0,6 -0.881356,0 -0.881356,0 0,-6 z"
     id="path7303"
     inkscape:connector-curvature="0" /><path
     style="fill:#147efb;fill-opacity:1"
     d="m 15.093695,17.477022 0,-6 0.915254,0 0.915254,0 0,6 0,6 -0.915254,0 -0.915254,0 0,-6 z"
     id="path7305"
     inkscape:connector-curvature="0" /><path
     style="fill:#147efb;fill-opacity:1"
     d="m 11.432678,17.477022 0,-6 0.881356,0 0.881355,0 0,6 0,6 -0.881355,0 -0.881356,0 0,-6 z"
     id="path7307"
     inkscape:connector-curvature="0" /></svg>