<?xml version="1.0" encoding="UTF-8" standalone="no"?>
<svg
   xmlns:osb="http://www.openswatchbook.org/uri/2009/osb"
   xmlns:dc="http://purl.org/dc/elements/1.1/"
   xmlns:cc="http://creativecommons.org/ns#"
   xmlns:rdf="http://www.w3.org/1999/02/22-rdf-syntax-ns#"
   xmlns:svg="http://www.w3.org/2000/svg"
   xmlns="http://www.w3.org/2000/svg"
   xmlns:xlink="http://www.w3.org/1999/xlink"
   xmlns:sodipodi="http://sodipodi.sourceforge.net/DTD/sodipodi-0.dtd"
   xmlns:inkscape="http://www.inkscape.org/namespaces/inkscape"
   enable-background="new 0 0 24 24"
   height="32"
   id="Layer_1"
   version="1.1"
   viewBox="0 0 32 31.999999"
   width="32"
   xml:space="preserve"
   inkscape:version="0.91 r13725"
   sodipodi:docname="icon_share.svg"><metadata
     id="metadata41"><rdf:RDF><cc:Work
         rdf:about=""><dc:format>image/svg+xml</dc:format><dc:type
           rdf:resource="http://purl.org/dc/dcmitype/StillImage" /><dc:title></dc:title></cc:Work></rdf:RDF></metadata><defs
     id="defs39"><linearGradient
       inkscape:collect="always"
       id="linearGradient9655"><stop
         style="stop-color:#4b4fa6;stop-opacity:1;"
         offset="0"
         id="stop9657" /><stop
         style="stop-color:#4b4fa6;stop-opacity:0;"
         offset="1"
         id="stop9659" /></linearGradient><linearGradient
       id="linearGradient9553"
       osb:paint="solid"><stop
         style="stop-color:#000000;stop-opacity:1;"
         offset="0"
         id="stop9555" /></linearGradient><linearGradient
       inkscape:collect="always"
       xlink:href="#linearGradient9655"
       id="linearGradient9663" /></defs><sodipodi:namedview
     pagecolor="#ffffff"
     bordercolor="#666666"
     borderopacity="1"
     objecttolerance="10"
     gridtolerance="10"
     guidetolerance="10"
     inkscape:pageopacity="0"
     inkscape:pageshadow="2"
     inkscape:window-width="2560"
     inkscape:window-height="1416"
     id="namedview37"
     showgrid="false"
     units="px"
     inkscape:zoom="9.8333333"
     inkscape:cx="12.966102"
     inkscape:cy="25.220339"
     inkscape:window-x="0"
     inkscape:window-y="24"
     inkscape:window-maximized="1"
     inkscape:current-layer="Layer_1" /><path
     style="fill:#a0a0a0;fill-opacity:1;stroke:url(#linearGradient9663);stroke-opacity:1"
     d=""
     id="path8105"
     inkscape:connector-curvature="0" /><path
     style="fill:#134563;fill-opacity:1;stroke:#134563;stroke-width:0.86456525;stroke-opacity:1"
     d="m 22.28821,27.532278 c 0,-0.02664 -0.187222,-0.09845 -0.41605,-0.159547 -0.914504,-0.244204 -1.897031,-0.988852 -2.485017,-1.883371 -0.385376,-0.586281 -0.7066,-1.477598 -0.7066,-1.960639 0,-0.164025 -0.0393,-0.298227 -0.08733,-0.298227 -0.04845,0 -0.07783,-0.184387 -0.06599,-0.414096 l 0.02134,-0.414096 -2.899934,-1.559045 c -1.594963,-0.857475 -2.916256,-1.542749 -2.936205,-1.522831 -0.01995,0.01992 -0.09378,-0.0212 -0.164069,-0.09139 -0.201347,-0.201027 -0.421354,-0.151943 -0.823852,0.1838 -0.871349,0.726834 -1.654058,1.006385 -2.8177517,1.006385 -3.3843482,0 -5.5015964,-3.451389 -3.9801421,-6.488148 0.3686111,-0.735732 1.2537998,-1.587943 2.0510229,-1.974613 1.6520926,-0.801301 3.2477949,-0.569472 4.8714859,0.707745 0.385367,0.303135 0.755578,0.551155 0.822691,0.551155 0.184479,0 0.641237,-0.255611 0.641237,-0.358849 0,-0.04993 0.03138,-0.07142 0.06973,-0.04775 0.03836,0.02367 1.216344,-0.682543 2.617758,-1.569353 L 18.54856,9.6270256 18.53652,9.1819306 c -0.0066,-0.244801 0.02308,-0.423428 0.06599,-0.396947 0.04292,0.02648 0.07887,-0.122202 0.07988,-0.330407 0.0025,-0.5126147 0.363199,-1.4983775 0.757274,-2.069648 0.866701,-1.2564095 2.188898,-1.9577898 3.680948,-1.9526169 1.254439,0.00434 2.24375,0.4172428 3.133646,1.3078417 0.877404,0.8780977 1.310351,1.9106564 1.312409,3.1300402 0.0022,1.2740084 -0.466183,2.3488814 -1.411281,3.2390214 -1.107556,1.043151 -2.35111,1.419483 -3.835566,1.160743 -1.440823,-0.251133 -2.47358,-1.043397 -3.280462,-2.516549 L 18.798752,10.31412 18.36568,10.54068 c -0.23819,0.124608 -0.472812,0.273337 -0.521383,0.330509 -0.04857,0.05717 -0.132074,0.111975 -0.185564,0.121782 -0.08198,0.01503 -1.532807,0.911786 -4.059725,2.509305 -0.617928,0.390654 -0.633602,0.438084 -0.417961,1.26467 0.222305,0.85213 0.172886,1.882968 -0.131988,2.753166 -0.143892,0.410708 -0.262151,0.807402 -0.262799,0.881541 -6.51e-4,0.07414 0.117613,0.204858 0.262799,0.290486 0.145186,0.08563 0.263975,0.127558 0.263975,0.09318 0,-0.03439 0.0693,-0.0026 0.153986,0.07069 0.25224,0.218194 0.989801,0.619472 0.991256,0.539306 7.04e-4,-0.04082 0.03547,-0.02048 0.07717,0.04524 0.105728,0.166603 4.060522,2.289633 4.179872,2.243857 0.05346,-0.02051 0.212058,-0.25637 0.352429,-0.524141 0.95393,-1.819708 2.689164,-2.749126 4.665555,-2.498942 0.984522,0.124627 1.707425,0.495022 2.472046,1.266604 0.960855,0.969605 1.364591,1.909707 1.360218,3.167272 -0.0027,0.773291 -0.112287,1.255266 -0.442543,1.946155 -0.476367,0.996548 -1.459677,1.870167 -2.531296,2.248919 -0.466117,0.164747 -2.303521,0.357771 -2.303521,0.241993 z m 1.780519,-0.773214 c 0.04882,-0.04874 0.143325,-0.06771 0.21002,-0.04216 0.06669,0.02555 0.121266,3.52e-4 0.121266,-0.05598 0,-0.05634 0.03394,-0.08149 0.07543,-0.0559 0.127908,0.07892 1.093579,-0.54471 1.452014,-0.937719 0.365027,-0.400239 0.787274,-1.150731 0.69773,-1.240132 -0.03009,-0.03004 -0.0042,-0.05462 0.05735,-0.05462 0.06239,0 0.0901,-0.05718 0.06251,-0.128964 -0.02726,-0.07093 -0.009,-0.153997 0.04058,-0.184592 0.04958,-0.03059 0.06938,-0.10966 0.044,-0.175704 -0.02539,-0.06605 -0.0083,-0.143443 0.03799,-0.172001 0.09429,-0.05818 0.116974,-1.209427 0.02563,-1.300626 -0.03219,-0.03214 -0.07011,-0.16693 -0.08426,-0.299542 -0.03279,-0.307099 -0.298946,-0.901243 -0.403719,-0.901243 -0.0439,0 -0.05692,-0.03699 -0.02894,-0.08221 0.04877,-0.07877 -0.924831,-1.147723 -1.045341,-1.147723 -0.03213,0 -0.141954,-0.0777 -0.24405,-0.172666 -0.102096,-0.09497 -0.219231,-0.151932 -0.260297,-0.126592 -0.04106,0.02534 -0.07467,0.0073 -0.07467,-0.03998 0,-0.04733 -0.128689,-0.116616 -0.285974,-0.153967 -0.349978,-0.0831 -0.343673,-0.08132 -0.505953,-0.143935 -0.295752,-0.114123 -1.361895,-0.115883 -1.671845,-0.0028 -0.0726,0.02649 -0.230412,0.06101 -0.350704,0.07669 -0.120293,0.01568 -0.232566,0.07001 -0.249492,0.120707 -0.01693,0.0507 -0.067,0.06985 -0.111255,0.04253 -0.04425,-0.02731 -0.08047,-0.0054 -0.08047,0.04857 0,0.05402 -0.03959,0.0738 -0.08799,0.04393 -0.0484,-0.02986 -0.08799,-0.01243 -0.08799,0.03875 0,0.05116 -0.03479,0.08315 -0.07731,0.07107 -0.09412,-0.02674 -0.890599,0.554298 -0.890599,0.649699 0,0.03739 -0.108485,0.168402 -0.241078,0.291155 -0.132593,0.122751 -0.210244,0.223185 -0.172557,0.223185 0.03769,0 -0.01112,0.08535 -0.108463,0.18967 -0.286479,0.307011 -0.477069,1.018082 -0.496798,1.853514 -0.01,0.423134 0.01546,0.790083 0.05656,0.815446 0.0411,0.02536 0.05341,0.101578 0.02735,0.169371 -0.06045,0.157284 0.468525,1.272108 0.633619,1.33536 0.0684,0.02621 0.10463,0.07953 0.0805,0.118504 -0.04748,0.07671 0.722495,0.789252 0.852866,0.789252 0.04361,0 0.164286,0.07907 0.268179,0.175704 0.169432,0.157599 0.337013,0.21648 0.529679,0.186108 0.0363,-0.0057 0.06599,0.03336 0.06599,0.08684 0,0.05349 0.05939,0.0745 0.131988,0.04668 0.0726,-0.02781 0.131989,-0.0077 0.131989,0.04478 0,0.05244 0.07915,0.07468 0.175895,0.04942 0.09674,-0.02526 0.20133,-0.0048 0.232417,0.04538 0.07076,0.114305 1.421804,0.03287 1.54819,-0.09331 z M 9.8987748,19.646313 c 0.05061,-0.05053 0.1465882,-0.07097 0.2132842,-0.04542 0.0667,0.02555 0.121265,0.0027 0.121265,-0.05078 0,-0.05349 0.0297,-0.08942 0.06599,-0.07984 0.123782,0.03264 0.461958,-0.116849 0.461958,-0.204215 0,-0.04791 0.03673,-0.06445 0.08162,-0.03675 0.09985,0.06161 1.166719,-0.908712 1.106351,-1.006233 -0.02369,-0.03827 0.01862,-0.0932 0.09399,-0.122086 0.07538,-0.02888 0.112415,-0.09232 0.0823,-0.140984 -0.03012,-0.04867 -0.01551,-0.08847 0.03249,-0.08847 0.0875,0 0.237238,-0.337638 0.204539,-0.461224 -0.0096,-0.03624 0.01888,-0.06588 0.06327,-0.06588 0.139229,0 0.256781,-0.805517 0.223226,-1.529631 -0.03752,-0.809606 -0.109259,-1.193779 -0.222926,-1.193779 -0.04455,0 -0.07316,-0.02965 -0.06357,-0.06588 0.0327,-0.123584 -0.117034,-0.461222 -0.204539,-0.461222 -0.04798,0 -0.06381,-0.03787 -0.03517,-0.08414 0.08695,-0.140473 -1.022024,-1.193078 -1.524401,-1.446915 -0.485708,-0.245415 -0.7117875,-0.292133 -1.686264,-0.348459 -0.5991381,-0.03464 -1.4066149,0.09774 -1.4066149,0.230605 0,0.04287 -0.039597,0.05352 -0.087992,0.02366 -0.048395,-0.02986 -0.087992,-0.0101 -0.087992,0.04392 0,0.05402 -0.03426,0.07709 -0.076132,0.05124 -0.1205638,-0.0744 -0.8571946,0.453605 -1.2423916,0.890517 -0.3944169,0.447368 -0.8017948,1.21821 -0.8369882,1.583751 -0.012805,0.133004 -0.051546,0.309716 -0.08609,0.392694 -0.1123827,0.269952 0.070254,1.734765 0.2284682,1.832389 0.050789,0.03134 0.081637,0.07233 0.068551,0.09108 -0.055368,0.07936 0.1851278,0.605525 0.3537015,0.77383 0.1006558,0.100496 0.1570756,0.18272 0.125377,0.18272 -0.097656,0 0.2560063,0.359711 0.7036959,0.715733 0.2343455,0.18636 0.4620244,0.316659 0.5059533,0.289553 0.043929,-0.02711 0.07987,-0.01376 0.07987,0.02965 0,0.103655 0.4314594,0.298456 0.5284648,0.238599 0.041425,-0.02556 0.1018576,-0.0036 0.1342946,0.0488 0.032437,0.05241 0.1130977,0.07454 0.1792459,0.0492 0.066148,-0.02535 0.1429263,-0.0095 0.1706182,0.03526 0.067481,0.109013 1.6157646,0.04534 1.7325423,-0.07126 z M 24.248237,12.54088 c 0.05928,-0.03694 0.186922,-0.07945 0.283649,-0.09445 0.27042,-0.04196 0.832194,-0.441607 1.335174,-0.94985 0.414505,-0.418841 0.81376,-1.004615 0.684729,-1.004615 -0.0289,0 0.0097,-0.06212 0.08573,-0.138054 0.07605,-0.07593 0.144303,-0.224179 0.151674,-0.329444 0.02539,-0.3625004 0.03304,-0.3988274 0.09771,-0.4633904 0.07978,-0.07965 0.08681,-1.214221 0.008,-1.29289 -0.03127,-0.03122 -0.06665,-0.181126 -0.07863,-0.3331242 -0.01198,-0.1519987 -0.06897,-0.3054814 -0.126645,-0.3410723 -0.05767,-0.035591 -0.10149,-0.089941 -0.09736,-0.1207777 0.02647,-0.1974332 -0.01286,-0.3083257 -0.168466,-0.4750879 -0.09679,-0.1037278 -0.175984,-0.2226665 -0.175984,-0.2643082 0,-0.131503 -0.624385,-0.8101543 -0.745374,-0.8101543 -0.06364,0 -0.140683,-0.064958 -0.171197,-0.144352 -0.03052,-0.079393 -0.07857,-0.1213076 -0.106773,-0.093142 -0.02821,0.028165 -0.133736,-0.025476 -0.234501,-0.119204 -0.161992,-0.1506796 -0.27323,-0.1892232 -0.470156,-0.1629103 -0.03089,0.00413 -0.08533,-0.039614 -0.12097,-0.097201 -0.03565,-0.057587 -0.178662,-0.115546 -0.31781,-0.1287968 -0.139147,-0.013251 -0.325509,-0.05404 -0.414136,-0.090643 -0.265154,-0.1095089 -1.387602,0.0169 -1.918559,0.2160662 -0.272715,0.1022977 -0.599384,0.2818003 -0.725933,0.3988946 -0.126549,0.1170944 -0.230087,0.1876234 -0.230087,0.1567313 0,-0.10369 -0.542937,0.4561689 -0.797241,0.8220876 -0.138442,0.1992082 -0.226881,0.3869917 -0.196527,0.4172969 0.03035,0.030305 0.0138,0.055099 -0.03679,0.055099 -0.107277,0 -0.287859,0.4010334 -0.321207,0.7133291 -0.01272,0.1191021 -0.04749,0.255924 -0.07728,0.304047 -0.158861,0.256633 0.03202,2.0574444 0.218073,2.0574444 0.05303,0 0.07172,0.02466 0.04154,0.0548 -0.07321,0.0731 0.256625,0.709393 0.495335,0.955581 0.10459,0.107868 0.235974,0.270576 0.291966,0.361574 0.05599,0.091 0.145083,0.155567 0.197981,0.143487 0.0529,-0.01207 0.09618,0.01701 0.09618,0.06464 0,0.134249 0.665315,0.541833 1.171549,0.717713 0.362335,0.125884 0.642487,0.150634 1.360424,0.120188 0.49727,-0.02109 0.952627,-0.06856 1.011907,-0.105512 z"
     id="path8107"
     inkscape:connector-curvature="0" /><style
     id="style9678"
     type="text/css">
	.st0{fill:#134563;}
</style><style
     id="style3"
     type="text/css">
	.st0{fill:#134563;}
</style><path
     style="fill:#147efb;fill-opacity:1"
     d="m 22.066837,27.733898 c -0.04607,-0.111445 -0.09048,-0.13296 -0.118813,-0.05756 -0.03391,0.09023 -0.150903,0.08313 -0.466869,-0.02835 -1.06139,-0.374481 -2.16923,-1.40171 -2.721448,-2.523427 -0.367756,-0.747016 -0.511314,-1.482584 -0.290046,-1.486146 0.08902,-0.0014 0.05896,-0.06664 -0.08204,-0.177966 -0.132771,-0.104824 -0.235332,-0.315192 -0.254237,-0.521478 -0.0313,-0.34146 -0.0643,-0.363159 -2.645205,-1.739029 -1.573867,-0.839023 -2.576626,-1.430141 -2.520785,-1.485982 0.05584,-0.05584 -0.0979,-0.0917 -0.386486,-0.09014 -0.390696,0.0021 -0.599317,0.08204 -1.129421,0.432707 -0.357614,0.236565 -0.815241,0.480518 -1.016949,0.542117 -0.5821265,0.177777 -1.945687,0.229552 -2.5796152,0.09795 C 5.3664056,20.17998 3.6682966,17.682873 4.1170705,15.2 c 0.5518797,-3.053313 3.8889832,-4.926284 6.5546775,-3.678855 0.383027,0.17924 0.975865,0.523353 1.317418,0.764694 0.799354,0.564826 0.94954,0.61831 1.02943,0.366599 0.03965,-0.124914 0.15438,-0.198201 0.310291,-0.198201 0.136061,0 0.247384,-0.03703 0.247384,-0.08229 0,-0.04526 1.028291,-0.720261 2.285092,-1.5 2.146696,-1.331843 2.28537,-1.4361831 2.289697,-1.7227905 0.0075,-0.4957425 0.379932,-1.8359257 0.684618,-2.4634579 0.394455,-0.8124225 1.344003,-1.750985 2.167238,-2.1421664 2.456989,-1.1675016 5.252091,-0.1740304 6.481497,2.3037374 0.331445,0.6680008 0.376171,0.8531496 0.41377,1.712815 0.07207,1.6478834 -0.423124,2.8600494 -1.600373,3.9174634 -1.356515,1.218432 -3.24572,1.559034 -4.993852,0.900335 -0.946136,-0.356505 -1.943806,-1.27574 -2.592094,-2.388307 -0.09291,-0.159456 -0.141206,-0.148983 -0.559322,0.121295 -0.251695,0.1627 -1.410019,0.886179 -2.574054,1.60773 l -2.116426,1.311911 0.05992,0.355933 c 0.03296,0.195762 0.08493,0.790678 0.115502,1.322034 0.04755,0.826495 0.02039,1.085822 -0.187911,1.794594 l -0.243489,0.828493 0.284746,0.137609 c 0.15661,0.07569 1.075071,0.578939 2.041023,1.118344 1.835467,1.024956 3.03488,1.648238 3.066874,1.59372 1.26148,-2.149575 2.762367,-3.0402 4.892794,-2.903381 1.266506,0.08134 1.97294,0.424427 3.031993,1.472536 0.382368,0.378417 0.723051,0.851442 0.96413,1.338654 0.340856,0.688858 0.376036,0.841425 0.410356,1.779661 0.0311,0.850165 -8.1e-5,1.137628 -0.181755,1.675692 -0.717044,2.123673 -2.516302,3.35947 -4.900284,3.365702 -0.548622,0.0014 -0.689384,-0.03167 -0.749128,-0.176201 z m 2.03563,-1.34621 c -0.02937,-0.04752 0.08004,-0.115699 0.243121,-0.151518 0.359243,-0.0789 1.13613,-0.61735 1.430284,-0.991307 0.117889,-0.149869 0.306397,-0.480598 0.41891,-0.734949 0.112511,-0.254351 0.259628,-0.46607 0.326925,-0.470485 0.07694,-0.005 0.08189,-0.02483 0.01336,-0.05328 -0.07654,-0.03178 -0.07824,-0.195424 -0.0057,-0.549434 0.119681,-0.584244 -0.02953,-1.344308 -0.381373,-1.94261 -0.283682,-0.482403 -0.898322,-1.156837 -1.138145,-1.248865 -0.161083,-0.06181 -0.167407,-0.08777 -0.04087,-0.167794 0.114027,-0.07211 0.08427,-0.09504 -0.124916,-0.09623 -0.152949,-9.15e-4 -0.32053,-0.0804 -0.378263,-0.179523 -0.05701,-0.09788 -0.105048,-0.124451 -0.106748,-0.05904 -0.0023,0.08826 -0.101249,0.09182 -0.383834,0.01379 -0.218296,-0.06027 -0.728114,-0.07755 -1.194915,-0.04048 -0.447796,0.03556 -0.894259,0.06652 -0.992141,0.0688 -0.09788,0.0023 -0.177966,0.05859 -0.177966,0.125123 0,0.06654 -0.205579,0.230032 -0.456842,0.363327 -0.500881,0.265717 -1.112667,1.077143 -1.298362,1.722047 -0.05927,0.205828 -0.108462,0.740334 -0.109325,1.187792 -0.0013,0.678067 0.04223,0.898242 0.261428,1.322034 0.309933,0.599223 0.95289,1.372881 1.140947,1.372881 0.07269,0 0.183489,0.06184 0.246216,0.137422 0.185544,0.223568 1.370114,0.495639 1.990014,0.457067 0.310852,-0.01934 0.565122,0.0019 0.565046,0.04711 -7.7e-5,0.04525 0.04637,0.05353 0.103215,0.0184 0.05684,-0.03513 0.07933,-0.102754 0.04996,-0.15027 l 3e-6,0 z M 9.9957431,19.182737 c 0.2916699,-0.102715 0.5606759,-0.217122 0.5977909,-0.254237 0.03712,-0.03712 0.151381,-0.06748 0.253924,-0.06748 0.102542,0 0.176257,-0.03432 0.16381,-0.07627 -0.03118,-0.105098 0.610336,-0.725854 0.679084,-0.657106 0.03048,0.03048 0.05541,-0.03459 0.05541,-0.144589 0,-0.11 0.05344,-0.253445 0.118767,-0.318768 0.256535,-0.256534 0.391195,-0.908573 0.377665,-1.82869 -0.0076,-0.517373 -0.05377,-0.940678 -0.10259,-0.940678 -0.04882,0 -0.08876,-0.08592 -0.08876,-0.190938 0,-0.105015 -0.06864,-0.247907 -0.152542,-0.317536 -0.0839,-0.06963 -0.154764,-0.201081 -0.15748,-0.292113 -0.0063,-0.211927 -0.988759,-1.023895 -1.534502,-1.268242 -0.5289158,-0.236812 -2.2090173,-0.289593 -2.4646607,-0.07743 -0.090369,0.075 -0.2545126,0.112775 -0.3647628,0.08394 -0.1102502,-0.02883 -0.1905787,-0.01793 -0.1785077,0.02421 0.012071,0.04215 -0.2082695,0.259399 -0.4896453,0.482778 -0.5959661,0.473127 -1.1120732,1.359861 -1.2211394,2.098064 -0.098119,0.664106 0.1269951,1.94288 0.40125,2.279326 0.5358674,0.657381 1.1423508,1.242713 1.2891089,1.244152 0.088559,9.15e-4 0.1937442,0.0343 0.2337443,0.0743 0.3453036,0.345304 1.788217,0.427554 2.5840328,0.147298 z M 24.568748,12.01328 c 1.067865,-0.517929 2.024472,-2.0255175 2.024472,-3.1905142 0,-0.4059997 -0.324858,-1.327545 -0.64897,-1.8409711 -0.283682,-0.4493812 -1.249566,-1.2394219 -1.515286,-1.2394219 -0.0895,0 -0.189027,-0.04256 -0.221176,-0.094578 -0.101803,-0.164721 -1.10848,-0.232907 -1.733298,-0.1174029 -0.740874,0.1369579 -1.613553,0.6439691 -1.988178,1.1550961 -0.176506,0.2408201 -0.300708,0.3355304 -0.333403,0.2542373 -0.02866,-0.071256 -0.05572,-0.00598 -0.06013,0.1450515 -0.0044,0.1510343 -0.06523,0.3112038 -0.135148,0.3559322 -0.158793,0.1015884 -0.194668,0.3585901 -0.20671,1.4808163 -0.0061,0.5646118 0.03471,0.935287 0.111287,1.0118644 0.06647,0.066466 0.120847,0.1963539 0.120847,0.2886399 0,0.09229 0.13425,0.35312 0.298334,0.579632 0.164085,0.226511 0.271941,0.438232 0.239682,0.470491 -0.03226,0.03226 0.02798,0.09068 0.133869,0.129831 0.105887,0.03915 0.331835,0.175764 0.502108,0.303591 0.623092,0.467766 0.948922,0.550746 2.029397,0.51683 0.704931,-0.02213 1.129047,-0.08629 1.382307,-0.209125 z"
     id="path7324"
     inkscape:connector-curvature="0" /></svg>